<svg width="128" height="128" viewBox="0 0 128 128" fill="currentColor" xmlns="http://www.w3.org/2000/svg">
<path fill-rule="evenodd" clip-rule="evenodd" d="M128 64C128 99.3462 99.3462 128 64 128C28.6538 128 0 99.3462 0 64C0 28.6538 28.6538 0 64 0C99.3462 0 128 28.6538 128 64ZM60 26C60 23.7909 61.7909 22 64 22C66.2091 22 68 23.7909 68 26V60H102C104.209 60 106 61.7909 106 64C106 66.2091 104.209 68 102 68H68V102C68 104.209 66.2091 106 64 106C61.7909 106 60 104.209 60 102V68H26C23.7909 68 22 66.2091 22 64C22 61.7909 23.7909 60 26 60H60V26Z"/>
</svg>
