<svg width="178" height="169" viewBox="0 0 178 169" fill="none" xmlns="http://www.w3.org/2000/svg">
<path d="M85.4362 62H92.97" stroke="black" stroke-width="16" stroke-linecap="square"/>
<path d="M85.4362 94.9767H92.97" stroke="black" stroke-width="16" stroke-linecap="square"/>
<path d="M85.4362 127.953H92.97" stroke="black" stroke-width="16" stroke-linecap="square"/>
<path d="M126.872 62H134.406" stroke="black" stroke-width="16" stroke-linecap="square"/>
<path d="M126.872 94.9767H134.406" stroke="black" stroke-width="16" stroke-linecap="square"/>
<path d="M126.872 127.953H134.406" stroke="black" stroke-width="16" stroke-linecap="square"/>
<path d="M44 62H51.5338" stroke="black" stroke-width="16" stroke-linecap="square"/>
<path d="M44 94.9767H51.5338" stroke="black" stroke-width="16" stroke-linecap="square"/>
<path d="M44 127.953H51.5338" stroke="black" stroke-width="16" stroke-linecap="square"/>
<path d="M4.18414 162.76L4.18911 18.6318C4.18914 17.5275 5.0842 16.6324 6.18852 16.6324L171.516 16.6253C172.621 16.6253 173.516 17.5211 173.516 18.6259L173.511 162.754C173.511 163.859 172.616 164.754 171.512 164.754L6.18473 164.761C5.07991 164.761 4.1841 163.865 4.18414 162.76Z" stroke="black" stroke-width="8" stroke-linecap="round"/>
<path d="M88.9451 4L88.9451 28.7324" stroke="black" stroke-width="8" stroke-linecap="round"/>
<path d="M126.614 4L126.614 28.7324" stroke="black" stroke-width="8" stroke-linecap="round"/>
<path d="M51.276 4L51.276 28.7324" stroke="black" stroke-width="8" stroke-linecap="round"/>
</svg>
