<svg width="91" height="91" viewBox="0 0 91 91" fill="none" xmlns="http://www.w3.org/2000/svg">
<path d="M62.9294 12.7555L37.4648 38.4792C37.1175 38.7889 36.8825 39.205 36.7961 39.6624L29.8162 57.8919C29.6915 58.3254 29.688 58.7846 29.8058 59.2199C29.9237 59.6553 30.1585 60.05 30.4849 60.3613C30.7358 60.5625 31.0242 60.7116 31.3333 60.7999C31.6425 60.8883 31.9662 60.9141 32.2855 60.8758C32.506 60.9216 32.7336 60.9216 32.9542 60.8758L50.9486 53.8275C51.406 53.7413 51.8219 53.5061 52.1317 53.1586L77.5963 27.5894L62.9294 12.7555Z" fill="black"/>
<path d="M87.346 9.27838L81.3053 3.23233C80.1214 2.06855 78.5282 1.4165 76.8687 1.4165C75.2092 1.4165 73.6161 2.06855 72.4319 3.23233L66.5164 9.27838L81.3053 24.0807L87.346 18.1599C88.5088 16.9747 89.1602 15.3801 89.1602 13.7191C89.1602 12.0581 88.5088 10.4635 87.346 9.27838Z" fill="black"/>
<path d="M36.7961 2.83289H14.1523C7.89932 2.83289 2.83032 7.90645 2.83032 14.165V76.4917C2.83032 82.7503 7.89932 87.8238 14.1523 87.8238H76.4229C82.6759 87.8238 87.7448 82.7501 87.7448 76.4917V53.8275" stroke="black" stroke-width="5" stroke-linecap="round"/>
</svg>
