<svg width="147" height="170" viewBox="0 0 147 170" stroke="currentColor" fill="none" xmlns="http://www.w3.org/2000/svg">
<path d="M65.9307 68.6832H116.851" stroke-width="8" stroke-linecap="round"/>
<path d="M65.9307 100.337H116.851" stroke-width="8" stroke-linecap="round"/>
<path d="M65.9307 131.99H116.851" stroke-width="8" stroke-linecap="round"/>
<path d="M65.9307 37.0297H116.851" stroke-width="8" stroke-linecap="round"/>
<path d="M26.4228 34.9261L33.882 42.3851C34.1093 42.6125 34.4891 42.5693 34.6595 42.2966L44.2058 27.0225" stroke-width="8" stroke-linecap="round"/>
<path d="M26.4228 66.5402L33.882 73.9993C34.1093 74.2266 34.4891 74.1834 34.6595 73.9107L44.2058 58.6367" stroke-width="8" stroke-linecap="round"/>
<path d="M26.4228 98.1543L33.882 105.613C34.1093 105.841 34.4891 105.798 34.6595 105.525L44.2058 90.2508" stroke-width="8" stroke-linecap="round"/>
<path d="M26.4228 129.768L33.882 137.228C34.1093 137.455 34.4891 137.412 34.6595 137.139L44.2058 121.865" stroke-width="8" stroke-linecap="round"/>
<path d="M4 150.02V4H128C136.284 4 143 10.7157 143 19V150.02C143 158.304 136.284 165.02 128 165.02H19C10.7157 165.02 4 158.304 4 150.02Z" stroke-width="8" stroke-linecap="round"/>
</svg>
